<?xml version="1.0" encoding="utf-8"?>
<!-- Generator: Adobe Illustrator 24.0.0, SVG Export Plug-In . SVG Version: 6.00 Build 0)  -->
<svg version="1.1" id="Ebene_1" xmlns="http://www.w3.org/2000/svg" xmlns:xlink="http://www.w3.org/1999/xlink" x="0px" y="0px"
	 viewBox="0 0 1920 500" style="enable-background:new 0 0 1920 500;" xml:space="preserve">
<style type="text/css">
	.st0{fill:#773707;}
	.st1{fill:#A0863C;}
	.st2{fill:#339900;}
</style>
<g>
	<path class="st0" d="M293.2,438.4h-71.5c-5.6-19.3-10.7-39.8-14.9-61.5c-16.9-87.1-15-165.4-6.9-228.3c18.9,0.3,37.7,0.7,56.6,1
		c-4.7,55-4.4,125.9,12.9,205.5C276,385.5,284.3,413.4,293.2,438.4z"/>
</g>
<path class="st1" d="M384.8,500H92.5c26.5-31.4,51-43.1,69.1-47.8c11.9-3.1,24.6-4.1,43.6-12.8c24.3-11,21.7-17.7,37.2-23.4
	c20.7-7.6,34.5,0.8,97.8,14.9c15.4,3.4,28,5.9,36.1,7.4C379.1,458.9,381.9,479.5,384.8,500z"/>
<path class="st2" d="M413.4,263.6c-13.7-18.2-41.9-50.6-88.6-73.9c-39.8-19.9-76.2-24.9-98-26.2c2.7-20.9,5.4-41.9,8.2-62.8
	c22.6,3.9,73.7,16.3,118.9,61.6C390.5,199.1,406.5,240.7,413.4,263.6z"/>
<path class="st2" d="M456.3,132.3c-21.6-10.4-62.1-26-113.3-22.9c-55.3,3.3-95.7,26.8-115.8,40.6c-2-25.6-4-51.1-5.9-76.7
	c21.6-8,72-22.7,133.5-4C404.7,84.5,439.1,114.8,456.3,132.3z"/>
<path class="st2" d="M40,284.8c12.3-19.1,37.4-52.8,80.8-80.9c47.9-31,93.6-39.3,116.6-41.9c-11.9-17.9-23.9-35.7-35.8-53.6
	c-21.9,6.2-71,23.5-111.6,72.2C57.1,220,44.9,262,40,284.8z"/>
<path class="st2" d="M72.1,1.1c20.2,7.7,56.1,24.2,89.6,58.7c36.2,37.3,51.7,76.9,58.3,97.9c14.7-13.9,29.3-27.7,44-41.6
	c-10.6-18.5-37.5-59.3-89.5-87.5C132.4,5.8,93.1,1.8,72.1,1.1z"/>
<path class="st2" d="M-1,139.2c19.2-9.3,55.6-23.9,103.6-25.7c51.9-1.9,91.7,12,111.7,20.5c-0.5-18.9-0.9-37.7-1.4-56.6
	c-20.8-4.1-69.2-10.9-124.9,7.6C42.8,100.2,13.5,125-1,139.2z"/>
<rect x="350.8" y="438.4" class="st1" width="1401.8" height="61.6"/>
<g>
	<path class="st2" d="M482.1,135h120.1v22.8H511v70.5h84.2V251H511v95.9h-28.9V135z"/>
	<path class="st2" d="M648.4,275.8c0.6,37.4,25.5,52.8,54.8,52.8c20.8,0,33.6-3.5,44.3-7.8l5.1,19.6c-10.2,4.4-28,9.7-53.4,9.7
		c-49.2,0-78.7-31.1-78.7-76.7c0-46.1,28.6-82.1,75.3-82.1c52.2,0,65.8,43.5,65.8,71.5c0,5.8-0.3,10-1,13H648.4z M733.5,255.9
		c0.3-17.4-7.5-44.8-40.1-44.8c-29.7,0-42.3,25.5-44.7,44.8H733.5z"/>
	<path class="st2" d="M830.3,151.8c0,9.4-6.9,17.2-18.5,17.2c-10.5,0-17.6-7.8-17.6-17.2c0-9.5,7.4-17.2,18.1-17.2
		C823.2,134.6,830.3,142.2,830.3,151.8z M797.8,346.8v-152h28.9v152H797.8z"/>
	<path class="st2" d="M891.5,275.8c0.6,37.4,25.5,52.8,54.8,52.8c20.8,0,33.6-3.5,44.3-7.8l5.1,19.6c-10.2,4.4-28,9.7-53.4,9.7
		c-49.2,0-78.7-31.1-78.7-76.7c0-46.1,28.6-82.1,75.3-82.1c52.2,0,65.8,43.5,65.8,71.5c0,5.8-0.3,10-1,13H891.5z M976.7,255.9
		c0.3-17.4-7.5-44.8-40.1-44.8c-29.7,0-42.3,25.5-44.7,44.8H976.7z"/>
	<path class="st2" d="M1040.9,242.2c0-17.9-0.5-33.2-1.3-47.3h25.5l1.1,29.8h1c7.5-20.4,25.1-33.3,44.6-33.3c3.2,0,5.4,0.2,8.1,0.8
		v26c-3-0.6-5.9-0.8-9.9-0.8c-20.5,0-35,14.7-38.9,35.4c-0.8,3.9-1.2,8.4-1.2,12.9v81.2h-28.9V242.2z"/>
	<path class="st2" d="M1192,151.1v43.8h41.8v20.9H1192v81.9c0,18.9,5.7,29.6,22,29.6c7.5,0,13-0.9,16.9-2l1.3,21
		c-5.6,2.1-14.7,3.8-26,3.8c-13.4,0-24.5-4.2-31.4-11.7c-8-8.4-11.3-21.8-11.3-39.7v-83h-24.8v-20.9h24.8v-36.6L1192,151.1z"/>
	<path class="st2" d="M1355.3,346.8l-2.6-19.2h-0.9c-8.8,11.9-26,22.7-48.9,22.7c-32.3,0-48.9-21.8-48.9-43.6
		c0-36.8,34.3-57,96.2-56.6v-3.2c0-12.4-3.7-35.2-36.4-35.1c-14.9,0-30.5,4.2-41.7,11.3l-6.6-18.4c13.3-8.1,32.6-13.3,52.8-13.3
		c48.9,0,60.8,31.8,60.8,62.2v56.9c0,13,0.6,25.9,2.4,36.4H1355.3z M1350.8,269.2c-31.5-0.6-67.5,4.7-67.5,34.1
		c0,18.1,12.6,26.5,27.2,26.5c21.1,0,34.4-12.6,39-25.5c1-2.9,1.4-6.1,1.4-8.7V269.2z"/>
	<path class="st2" d="M1564.1,194.8c-0.8,10.7-1.3,23.1-1.3,41.6v88.3c0,35.2-7.6,56.3-22.8,69.6c-15.7,13.7-38.1,18.2-58.3,18.2
		c-19.4,0-40.4-4.3-53.4-12.5l7.3-21.3c10.7,6.3,27.1,12.2,47.1,12.2c29.7,0,51.5-14.8,51.5-53.3v-16.9h-0.7
		c-8.7,14.3-26.2,25.6-50.8,25.6c-39.9,0-68.2-32.2-68.2-74.4c0-51.6,35.3-80.6,72.2-80.6c27.8,0,42.8,13.6,49.9,26.2h0.7l1.2-22.8
		H1564.1z M1533.8,254.6c0-4.5-0.4-8.6-1.6-12.4c-5.4-16.1-19.4-29.4-40.9-29.4c-27.8,0-47.7,22.3-47.7,57.6
		c0,29.7,16.2,54.8,47.4,54.8c18.1,0,34.2-10.8,40.5-28.5c1.5-4.5,2.3-9.9,2.3-14.7V254.6z"/>
	<path class="st2" d="M1627.3,275.8c0.6,37.4,25.5,52.8,54.8,52.8c20.8,0,33.6-3.5,44.3-7.8l5.1,19.6c-10.2,4.4-28,9.7-53.4,9.7
		c-49.2,0-78.7-31.1-78.7-76.7c0-46.1,28.6-82.1,75.3-82.1c52.2,0,65.8,43.5,65.8,71.5c0,5.8-0.3,10-1,13H1627.3z M1712.4,255.9
		c0.3-17.4-7.5-44.8-40.1-44.8c-29.7,0-42.3,25.5-44.7,44.8H1712.4z"/>
</g>
<path class="st1" d="M1896,500h-143.5v-61.6c6.8-0.4,17.1-0.2,28.7,3.2c16.9,4.9,19.6,11.5,34,16.7c22.6,8.1,32-3.4,48.9,4
	C1882.1,470.1,1891.2,487.4,1896,500z"/>
</svg>
