<svg xmlns="http://www.w3.org/2000/svg" viewBox="0 0 1785 469.4"><defs><style>.cls-1{fill:#773707;}.cls-2{fill:#a0863c;}.cls-3{fill:#390;}</style></defs><title>Ebene 1</title><g id="Ebene_2" data-name="Ebene 2"><g id="Ebene_1-2" data-name="Ebene 1"><path class="cls-1" d="M276.86,411.4H209.61c-5.27-18.15-10-37.46-14-57.9-15.94-81.94-14.07-155.63-6.53-214.81l53.23.94A646.9,646.9,0,0,0,254.44,333,637.32,637.32,0,0,0,276.86,411.4Z"/><path class="cls-2" d="M363,469.4H88c24.91-29.57,48-40.57,65-45,11.18-2.91,23.16-3.88,41-12,22.83-10.39,20.43-16.64,35-22,19.47-7.16,32.49.8,92,14,14.48,3.22,26.37,5.55,34,7Q359,440.41,363,469.4Z"/><path class="cls-3" d="M389.91,246.92A236.91,236.91,0,0,0,214.28,152.7q3.84-29.53,7.69-59.07a207.92,207.92,0,0,1,111.87,58C368.37,186.28,383.4,225.45,389.91,246.92Z"/><path class="cls-3" d="M430.31,123.43C410,113.65,371.92,99,323.69,101.92c-52.05,3.14-90.08,25.18-109,38.18l-5.58-72.17a196.36,196.36,0,0,1,125.66-3.77C381.79,78.47,414.1,106.94,430.31,123.43Z"/><path class="cls-3" d="M38.58,266.9A256.57,256.57,0,0,1,224.32,151.34l-33.7-50.46a211.49,211.49,0,0,0-105,67.91C54.63,206,43.17,245.44,38.58,266.9Z"/><path class="cls-3" d="M68.8,0a232.12,232.12,0,0,1,84.29,55.28,232.15,232.15,0,0,1,54.83,92.08l41.43-39.11a217.45,217.45,0,0,0-84.18-82.36A216.13,216.13,0,0,0,68.8,0Z"/><path class="cls-3" d="M0,129.91a246,246,0,0,1,202.61-4.85l-1.28-53.23C181.72,67.94,136.24,61.54,83.79,79A218.6,218.6,0,0,0,0,129.91Z"/><rect class="cls-2" x="331" y="411.4" width="1319" height="58"/><path class="cls-3" d="M454.54,125.92h113v21.45H481.78v66.38H561v21.31H481.78v90.23H454.54Z"/><path class="cls-3" d="M611,258.46c.54,35.16,24,49.66,51.52,49.66,19.59,0,31.58-3.34,41.7-7.32l4.8,18.47c-9.58,4.16-26.31,9.12-50.23,9.12-46.26,0-74.08-29.28-74.08-72.2,0-43.35,26.88-77.21,70.84-77.21,49.11,0,62,41,62,67.28a60.22,60.22,0,0,1-.94,12.2Zm80.13-18.72c.28-16.39-7.06-42.11-37.76-42.11-27.95,0-39.85,24-42,42.11Z"/><path class="cls-3" d="M782.25,141.8c0,8.85-6.53,16.16-17.41,16.16-9.91,0-16.55-7.31-16.53-16.16s7-16.19,17-16.19C775.55,125.61,782.18,132.71,782.25,141.8ZM751.66,325.29v-143H778.9V325.29Z"/><path class="cls-3" d="M839.82,258.46c.54,35.16,24,49.66,51.52,49.66,19.59,0,31.58-3.34,41.7-7.32l4.8,18.47c-9.58,4.16-26.31,9.12-50.23,9.12-46.26,0-74.08-29.28-74.08-72.2,0-43.35,26.88-77.21,70.84-77.21,49.11,0,62,41,62,67.28a60.22,60.22,0,0,1-.94,12.2ZM920,239.74c.28-16.39-7.06-42.11-37.76-42.11-28,0-39.85,24-42,42.11Z"/><path class="cls-3" d="M980.41,226.79c0-16.89-.45-31.29-1.25-44.55h24l1,28.06h1c7-19.19,23.64-31.32,41.93-31.32a32.44,32.44,0,0,1,7.61.74v24.47a45.53,45.53,0,0,0-9.31-.76c-19.3,0-32.93,13.82-36.65,33.28a65.41,65.41,0,0,0-1.1,12.15v76.43H980.41Z"/><path class="cls-3" d="M1122.58,141.06v41.18h39.34V202h-39.34V279c0,17.82,5.4,27.89,20.7,27.89a56.91,56.91,0,0,0,15.87-1.89l1.25,19.77c-5.32,2-13.82,3.58-24.46,3.58-12.58,0-23-3.94-29.55-11-7.55-7.89-10.63-20.51-10.63-37.32V202h-23.32V182.24h23.32V147.78Z"/><path class="cls-3" d="M1276.23,325.29l-2.41-18.07H1273c-8.27,11.17-24.5,21.32-46.06,21.32-30.42,0-46-20.51-46-41.05,0-34.65,32.31-53.68,90.47-53.29v-3c0-11.62-3.44-33.15-34.28-33-14,0-28.66,4-39.22,10.67l-6.21-17.3c12.47-7.65,30.69-12.55,49.69-12.55,46,0,57.24,29.9,57.24,58.56v53.51c0,12.22.58,24.41,2.27,34.24ZM1272,252.24c-29.63-.6-63.55,4.46-63.55,32.12,0,17.08,11.82,24.91,25.56,24.91,19.82,0,32.33-11.86,36.69-23.95a25.82,25.82,0,0,0,1.3-8.2Z"/><path class="cls-3" d="M1472.71,182.24c-.75,10.11-1.26,21.72-1.26,39.15v83.06c0,33.11-7.11,52.95-21.5,65.49-14.79,12.88-35.85,17.17-54.85,17.17-18.21,0-38-4.06-50.26-11.78l6.87-20c10,6,25.52,11.45,44.32,11.45,27.94,0,48.48-13.9,48.48-50.12V300.7h-.62c-8.23,13.44-24.64,24.1-47.85,24.1-37.53,0-64.18-30.33-64.18-70,0-48.51,33.2-75.85,68-75.85,26.13,0,40.26,12.78,47,24.68h.63l1.13-21.42Zm-28.48,56.26a38.06,38.06,0,0,0-1.52-11.63c-5-15.16-18.27-27.68-38.45-27.68-26.12,0-44.84,21-44.84,54.23,0,28,15.2,51.53,44.57,51.53a39.93,39.93,0,0,0,38.09-26.83,44.2,44.2,0,0,0,2.15-13.83Z"/><path class="cls-3" d="M1532.13,258.46c.54,35.16,24,49.66,51.53,49.66,19.59,0,31.57-3.34,41.69-7.32l4.8,18.47c-9.57,4.16-26.31,9.12-50.23,9.12-46.26,0-74.07-29.28-74.07-72.2,0-43.35,26.87-77.21,70.83-77.21,49.12,0,62,41,62,67.28a61.12,61.12,0,0,1-.93,12.2Zm80.14-18.72c.27-16.39-7.07-42.11-37.77-42.11-28,0-39.85,24-42,42.11Z"/><path class="cls-2" d="M1785,469.4H1650v-58a81.69,81.69,0,0,1,27,3c15.94,4.61,18.4,10.85,32,15.71,21.26,7.61,30.09-3.23,46,3.74C1772,441.29,1780.51,457.53,1785,469.4Z"/></g></g></svg>